<svg xmlns="http://www.w3.org/2000/svg" xmlns:xlink="http://www.w3.org/1999/xlink" viewBox="0 0 1440 720"><defs><style>.f115d434-406c-4e82-8851-3177f0330e8d{fill:none;}.a8492a11-1c57-4e8e-a0b3-3c65e01230ab{isolation:isolate;}.a399f0c8-ff4b-49a2-bab6-a17b90130194{fill:#cadfee;}.ba5188a6-9182-44c3-9c12-792700d26142{fill:#fff;}.b29b0101-ec1a-49de-946e-0f7ee87ae1d8{clip-path:url(#f74732a6-5fb1-4cda-bce5-cf8eda5d6ab7);}.a36ad5ef-6467-4639-9a9e-be59a9c57b50,.bb16b476-cd5e-4df0-a3e5-cdfc9285e7cd{fill:#5b70b6;}.a36ad5ef-6467-4639-9a9e-be59a9c57b50{opacity:0.29;mix-blend-mode:multiply;}.f5890a03-e881-421b-9c82-791191094af4{fill:url(#ba36bbe4-15c0-4547-b702-a5a67e8d7508);}.b1d9db17-0fcb-4fee-abaf-65967fd6ebb8{fill:#413c98;}.f302ae72-9f48-40c8-8932-4c442e879a7a{fill:#575eaa;}.a7376777-8861-484a-bc77-48ebfce7f639,.a904233f-fae8-43d6-828a-da6d2827a809{fill:#010101;}.a7376777-8861-484a-bc77-48ebfce7f639{opacity:0.27;}.b9b9f2e7-f2ba-400f-b516-0165a95074d8{fill:url(#f0a40006-56ce-43ce-948d-ac241387a969);}.a094aa37-12c6-44fb-ae8c-048a444b3c5d{fill:#fee7da;}.b42294bc-712e-4c42-94b2-d097c987b547{fill:url(#b3eef083-d2c4-4b1c-b92e-8fdd8723e221);}.e3bd9557-807b-4be7-8130-94a2506e1f94{fill:url(#a77002b4-3449-4900-b254-1d03da570ce3);}.ac9f7077-62e1-4f72-9938-61bea3a1410d{fill:url(#ac44ca79-b5af-4466-9996-45da8b04ad7f);}.b69d3121-2000-4eb0-be9a-db6ba3fd5fda{fill:url(#ebc95d04-3640-4fcb-9b8f-e497cdf0cdfd);}.a9bcb7c9-6ee3-4806-9985-54816be5036f{fill:url(#fad742bb-6870-4cc2-b7ed-b953dfecd661);}.a5560144-7bb0-4cb8-af3a-c84ea552a6da{fill:url(#bd0cec0f-3e28-4632-836d-4525515b294c);}.a6491bf6-2310-45b5-99e4-4176d445b728{fill:#f8acad;}.b0612ea0-3ce3-476d-929a-6933000726d0{fill:url(#efdfd373-8ce8-42ad-b2c3-e8bb8dae583b);}.ef40103a-8027-4c2d-892a-02a513b997bb{fill:url(#bd497d8d-ae89-4252-b6b1-457c3f761df5);}.e46db6d0-3fcf-4220-bcdd-81e3888e1ea7{fill:url(#f32ac637-a62c-4c7b-a1e3-fafdc28c59e7);}.ae9e6492-8052-4699-af15-612dc756d69c{fill:#a0a9d1;}.b0f2a122-a60b-42ed-ba63-6c7b71b1d752{fill:url(#f4376d14-ecae-4e18-beec-4605f2d6b5f9);}.b1653dda-0a73-45a6-b29f-63d1c086017b{fill:url(#a6fc5e68-799a-4add-9168-f2f7a607c6cd);}.bcc0e4b3-2aa0-4c56-9372-9e39f42eed42{fill:url(#a82b81fa-2436-498f-9809-61c40c93b361);}.b2e18eba-635a-471c-8533-0718c3db8481{fill:url(#a1b3667d-3725-4f3b-aa14-128152b03ef1);}.a904233f-fae8-43d6-828a-da6d2827a809{opacity:0.2;}.fd8b485d-fec1-4fea-8e82-a73455f992e2{fill:url(#e9f0cfd9-d331-475d-a31d-503bf6e9d5f6);}.e3410fa9-d656-4fd3-bdea-898e711332dc{fill:url(#b02a258d-7a98-447b-ab36-db0d2b5c77ac);}.abb7ffe3-f027-46b7-827d-f88bd752d975{fill:#8a8e9b;}.ad17df0b-d69d-4ff7-909f-77d1126d04f5{fill:url(#f9b0c47c-a0cf-4174-b39c-9ffb785ffddb);}.b6a0f554-704a-492f-946c-c7c28e82474d{fill:url(#be1ed89d-1c49-427e-8bdf-55e84e967a46);}.b652331b-38d9-4fe6-bd21-161168e5ee71{fill:url(#ae5bdd79-723f-49db-a398-4c785cb5cab3);}.ff1217d3-952c-4474-9df2-5f11041eba11{fill:url(#bacbd6f4-6e5d-4116-9448-c21f60ba1a41);}.b5a049dc-281d-4467-8860-76abd3c84770{fill:url(#ab0aaed1-f644-4e3d-8948-c892b4ab03f3);}.b31fa4a8-85cf-4213-95a0-71a927c1dca3{fill:url(#e373b602-62ee-4be6-ac05-8985dc47ec49);}.a7e84366-9d18-45bd-81e4-af95da8a4052{fill:#402c2d;}.b1adbf8c-4d4b-40f0-abbd-8989e4f7b0b3{fill:url(#a0eb37e3-5a34-4a31-a19d-209c15b02ef0);}.f4f60986-7dbd-40f4-9811-8e16c4ae726a{fill:url(#ada3ddd6-29d9-48b3-ac54-c48ea8d16776);}.a4134cf2-4295-4540-b1bb-a0b1d0eb5eab{fill:url(#a76a85de-508c-47fb-822f-0b9c53004c1c);}.e07529ce-ad7a-4d2f-8aa8-4ce1d6a999a0{fill:#d99393;}.f56ce89c-c2c3-48d8-9e97-97f086e34066{fill:url(#a57df7c4-9d18-4bfa-9ef4-622698a5cc3e);}</style><clipPath id="f74732a6-5fb1-4cda-bce5-cf8eda5d6ab7"><polygon class="f115d434-406c-4e82-8851-3177f0330e8d" points="-0.9 0.2 1224.3 0.2 1224.3 714.8 -0.9 714.8 -0.9 0.2 -0.9 0.2"/></clipPath><linearGradient id="ba36bbe4-15c0-4547-b702-a5a67e8d7508" x1="1948.59" y1="-224.35" x2="643.71" y2="258.2" gradientTransform="matrix(-1, 0, 0, 1, 1386.71, 0)" gradientUnits="userSpaceOnUse"><stop offset="0" stop-color="#413c98"/><stop offset="0.4" stop-color="#433f9a"/><stop offset="0.68" stop-color="#49489e"/><stop offset="0.93" stop-color="#5358a7"/><stop offset="1" stop-color="#575eaa"/></linearGradient><linearGradient id="f0a40006-56ce-43ce-948d-ac241387a969" x1="1080.37" y1="251.05" x2="991.3" y2="320.91" gradientTransform="matrix(-0.95, -0.3, -0.3, 0.95, 1442.19, 262.99)" gradientUnits="userSpaceOnUse"><stop offset="0" stop-color="#fee7da"/><stop offset="0.32" stop-color="#fee4d8"/><stop offset="0.55" stop-color="#fddbd1"/><stop offset="0.75" stop-color="#fbcbc5"/><stop offset="0.94" stop-color="#f9b5b4"/><stop offset="1" stop-color="#f8acad"/></linearGradient><linearGradient id="b3eef083-d2c4-4b1c-b92e-8fdd8723e221" x1="1067.95" y1="233.18" x2="992.08" y2="216.59" gradientTransform="matrix(-1.15, -0.06, -0.1, 1, 1541.26, 50.75)" xlink:href="#f0a40006-56ce-43ce-948d-ac241387a969"/><linearGradient id="a77002b4-3449-4900-b254-1d03da570ce3" x1="1098.35" y1="236.94" x2="1075.05" y2="261.71" xlink:href="#f0a40006-56ce-43ce-948d-ac241387a969"/><linearGradient id="ac44ca79-b5af-4466-9996-45da8b04ad7f" x1="1064.49" y1="210.05" x2="1037.33" y2="238.94" gradientTransform="matrix(-0.97, -0.25, -0.25, 0.97, 1439.29, 218.59)" xlink:href="#f0a40006-56ce-43ce-948d-ac241387a969"/><linearGradient id="ebc95d04-3640-4fcb-9b8f-e497cdf0cdfd" x1="1073.55" y1="243.05" x2="1061.72" y2="258.58" xlink:href="#f0a40006-56ce-43ce-948d-ac241387a969"/><linearGradient id="fad742bb-6870-4cc2-b7ed-b953dfecd661" x1="941.91" y1="524.69" x2="930.09" y2="540.21" gradientTransform="matrix(-0.09, -1, -1, 0.09, 947.11, 1124.47)" xlink:href="#f0a40006-56ce-43ce-948d-ac241387a969"/><linearGradient id="bd0cec0f-3e28-4632-836d-4525515b294c" x1="1036.26" y1="260.18" x2="1003.77" y2="237.66" xlink:href="#f0a40006-56ce-43ce-948d-ac241387a969"/><linearGradient id="efdfd373-8ce8-42ad-b2c3-e8bb8dae583b" x1="1018.18" y1="267.6" x2="1010.11" y2="265.84" xlink:href="#f0a40006-56ce-43ce-948d-ac241387a969"/><linearGradient id="bd497d8d-ae89-4252-b6b1-457c3f761df5" x1="1192.38" y1="151.18" x2="1068.45" y2="67.1" gradientTransform="matrix(-1, 0.05, 0.05, 1, 1372.81, -39.54)" xlink:href="#f0a40006-56ce-43ce-948d-ac241387a969"/><linearGradient id="f32ac637-a62c-4c7b-a1e3-fafdc28c59e7" x1="1277.02" y1="28.97" x2="1277.02" y2="112.39" gradientTransform="matrix(1, 0, 0, -1, -1167.33, 97.19)" gradientUnits="userSpaceOnUse"><stop offset="0" stop-color="#fff"/><stop offset="0.29" stop-color="#fffcfc"/><stop offset="0.49" stop-color="#fef3f3"/><stop offset="0.66" stop-color="#fde3e4"/><stop offset="0.83" stop-color="#fbcdce"/><stop offset="0.98" stop-color="#f8b1b2"/><stop offset="1" stop-color="#f8acad"/></linearGradient><linearGradient id="f4376d14-ecae-4e18-beec-4605f2d6b5f9" x1="1314.29" y1="97.03" x2="1331.65" y2="97.03" gradientTransform="matrix(-1, 0, 0, 1, 1360.74, 64.13)" xlink:href="#f0a40006-56ce-43ce-948d-ac241387a969"/><linearGradient id="a6fc5e68-799a-4add-9168-f2f7a607c6cd" x1="1224.64" y1="85.46" x2="1224.64" y2="107" gradientTransform="matrix(-1, 0, 0, 1, 1359.59, 49.09)" xlink:href="#f0a40006-56ce-43ce-948d-ac241387a969"/><linearGradient id="a82b81fa-2436-498f-9809-61c40c93b361" x1="1252.43" y1="86.85" x2="1252.43" y2="105.81" gradientTransform="matrix(-1, 0, 0, 1, 1359.92, 53.43)" xlink:href="#f0a40006-56ce-43ce-948d-ac241387a969"/><linearGradient id="a1b3667d-3725-4f3b-aa14-128152b03ef1" x1="1276.15" y1="88.53" x2="1276.15" y2="104.37" gradientTransform="matrix(-1, 0, 0, 1, 1360.19, 56.95)" xlink:href="#f0a40006-56ce-43ce-948d-ac241387a969"/><linearGradient id="e9f0cfd9-d331-475d-a31d-503bf6e9d5f6" x1="860.74" y1="654.97" x2="860.74" y2="589.16" gradientTransform="matrix(-1, 0, 0, 1, 1386.71, 0)" xlink:href="#f0a40006-56ce-43ce-948d-ac241387a969"/><linearGradient id="b02a258d-7a98-447b-ab36-db0d2b5c77ac" x1="929.32" y1="654.97" x2="929.32" y2="589.16" gradientTransform="matrix(-1, 0, 0, 1, 1386.71, 0)" xlink:href="#f0a40006-56ce-43ce-948d-ac241387a969"/><linearGradient id="f9b0c47c-a0cf-4174-b39c-9ffb785ffddb" x1="880.9" y1="493.34" x2="941.81" y2="493.34" gradientTransform="matrix(-1, 0, 0, 1, 1386.71, 0)" gradientUnits="userSpaceOnUse"><stop offset="0" stop-color="#19181d"/><stop offset="1" stop-color="#404152"/></linearGradient><linearGradient id="be1ed89d-1c49-427e-8bdf-55e84e967a46" x1="880.9" y1="471.8" x2="935.25" y2="471.8" xlink:href="#f9b0c47c-a0cf-4174-b39c-9ffb785ffddb"/><linearGradient id="ae5bdd79-723f-49db-a398-4c785cb5cab3" x1="808.06" y1="310.25" x2="856.88" y2="310.25" gradientTransform="matrix(-1, 0, 0, 1, 1386.71, 0)" xlink:href="#f0a40006-56ce-43ce-948d-ac241387a969"/><linearGradient id="bacbd6f4-6e5d-4116-9448-c21f60ba1a41" x1="778.62" y1="317.58" x2="837.49" y2="317.58" gradientTransform="matrix(-1, 0, 0, 1, 1386.71, 0)" xlink:href="#f0a40006-56ce-43ce-948d-ac241387a969"/><linearGradient id="ab0aaed1-f644-4e3d-8948-c892b4ab03f3" x1="823.17" y1="248.82" x2="891.69" y2="248.82" gradientTransform="matrix(-1, 0, 0, 1, 1386.71, 0)" xlink:href="#f0a40006-56ce-43ce-948d-ac241387a969"/><linearGradient id="e373b602-62ee-4be6-ac05-8985dc47ec49" x1="862.29" y1="496.25" x2="923.4" y2="496.25" xlink:href="#f9b0c47c-a0cf-4174-b39c-9ffb785ffddb"/><linearGradient id="a0eb37e3-5a34-4a31-a19d-209c15b02ef0" x1="899.24" y1="453.45" x2="899.24" y2="218.91" gradientTransform="matrix(-1, 0, 0, 1, 1386.71, 0)" gradientUnits="userSpaceOnUse"><stop offset="0" stop-color="#412970"/><stop offset="1" stop-color="#7b5ba6"/></linearGradient><linearGradient id="ada3ddd6-29d9-48b3-ac54-c48ea8d16776" x1="803.74" y1="323.92" x2="890.04" y2="323.92" xlink:href="#a0eb37e3-5a34-4a31-a19d-209c15b02ef0"/><linearGradient id="a76a85de-508c-47fb-822f-0b9c53004c1c" x1="1171.17" y1="568.88" x2="1171.17" y2="688.01" gradientTransform="matrix(-1, 0, 0, 1, 1386.71, 0)" xlink:href="#f0a40006-56ce-43ce-948d-ac241387a969"/><linearGradient id="a57df7c4-9d18-4bfa-9ef4-622698a5cc3e" x1="1284.55" y1="569.64" x2="1284.55" y2="688.76" gradientTransform="matrix(-1, 0, 0, 1, 1386.71, 0)" xlink:href="#f0a40006-56ce-43ce-948d-ac241387a969"/></defs><g class="a8492a11-1c57-4e8e-a0b3-3c65e01230ab"><g id="a470b6d0-dac3-4ebd-9983-17181c6ee5de" data-name="Layer 1"><rect class="a399f0c8-ff4b-49a2-bab6-a17b90130194" x="0.1" y="0.2" width="1438" height="719.3"/><path class="ba5188a6-9182-44c3-9c12-792700d26142" d="M1438.2.2v459c-132.5,115.2-303.5,224.1-476.7,224.1C677.4,683.3,305.9,344.6,0,190.5V.2Z"/><g class="b29b0101-ec1a-49de-946e-0f7ee87ae1d8"><path class="a36ad5ef-6467-4639-9a9e-be59a9c57b50" d="M399.1,163.5c-17.1-7.3-29-22.6-33.9-37.9s-1.2-21.8,4.9-21,5.7,18.3,17,29.4c17.2,17.2,32.2,10.6,35.1,20.6S415.2,170.4,399.1,163.5Z"/><path class="a36ad5ef-6467-4639-9a9e-be59a9c57b50" d="M514.9,215.1s-22.6-20.8-54.4-13.4-55,35.8-102.1,29.1-70-8.2-96.8,11.2-22.9,63.8-65.4,57.9-81.7-32.4-133.8-24.2S-71.7,325.2-82.5,362.9s35.2,79.1,73,60.2,61.7-70.7,113.4-81.4c65.6-13.5,116.9,21.7,144.6,4.7,63.9-39.3,44.1-91.6,78.1-78.6,51.8,19.7,93.5,10.3,120.5-22.7s44.6-28.7,67.6-16.6Z"/><path class="f5890a03-e881-421b-9c82-791191094af4" d="M518.2,205.9s-7.9-29.8-39.7-32.9c-52.6-5.3-68.4-16.6-95.2-64.9s-73.1-55.9-97.4-89.4-15.5-74.5-99.8-97.2C120-96.3,91-150.5,114.2-199.2c19.1-40.1,123.4-50.9,148.4-110.5C306.9-415,213.8-470,137.4-466.3S-75.6-412-130.5-332.5-190.4,66.2-239.2,166.1s-42.9,199.6-6.2,227.2S-142.3,466.9-66.9,413,50.5,327.8,92.6,320.8c53.4-9,117,4.7,144-4.4s16.7-41,49.3-63.7c22.1-15.3,54.8-3.2,85.7-2.1,56.1,2.1,68.6-55.1,137.4-31.6Z"/><path class="b1d9db17-0fcb-4fee-abaf-65967fd6ebb8" d="M311.2,268.7c-14.5-5.6-26.6,15.3-29.8,27.5s-8.1,24.5-23,36-10.8,26.6-1.8,29.2,24.8-3.5,49.2-23.7S335.5,278.2,311.2,268.7Z"/><path class="b1d9db17-0fcb-4fee-abaf-65967fd6ebb8" d="M51.3,366.8c-11-11-30.5,3.4-38.3,13.2s-17.2,19.1-35.5,23.7-20.6,20-13.4,26,24.1,6.8,54.5-1.9S69.8,385.3,51.3,366.8Z"/><path class="f302ae72-9f48-40c8-8932-4c442e879a7a" d="M192.2,360.8a14.4,14.4,0,1,0,14.4-14.4A14.4,14.4,0,0,0,192.2,360.8Z"/><path class="bb16b476-cd5e-4df0-a3e5-cdfc9285e7cd" d="M168.6,338.1a5.9,5.9,0,0,0,5.9,5.9,5.9,5.9,0,0,0,0-11.8A5.9,5.9,0,0,0,168.6,338.1Z"/><path class="f302ae72-9f48-40c8-8932-4c442e879a7a" d="M399.1,155.6c-17.1-7.3-29-22.6-33.9-37.9s-1.2-21.8,4.9-21,5.7,18.3,17,29.4c17.2,17.2,32.2,10.6,35.1,20.6S415.2,162.5,399.1,155.6Z"/><path class="b1d9db17-0fcb-4fee-abaf-65967fd6ebb8" d="M345.2,71.7a7.3,7.3,0,1,0,7.2-7.2A7.2,7.2,0,0,0,345.2,71.7Z"/><path class="b1d9db17-0fcb-4fee-abaf-65967fd6ebb8" d="M315.2,32.6a2.7,2.7,0,1,0,2.7-2.7A2.7,2.7,0,0,0,315.2,32.6Z"/><path class="a7376777-8861-484a-bc77-48ebfce7f639" d="M515.3,231.8a6.4,6.4,0,0,1-.8,7.6,13.6,13.6,0,0,1-10.5,0l3.6-10.1S513.3,228.3,515.3,231.8Z"/><path class="b9b9f2e7-f2ba-400f-b516-0165a95074d8" d="M310.7,196.4A50.9,50.9,0,1,0,374.5,163,51,51,0,0,0,310.7,196.4Z"/><path class="a094aa37-12c6-44fb-ae8c-048a444b3c5d" d="M311.1,195a48,48,0,1,0,60.2-31.4A48,48,0,0,0,311.1,195Z"/><path class="b42294bc-712e-4c42-94b2-d097c987b547" d="M313.9,213c1,11.3,9.3,19.8,18.6,19.1s16.1-10.6,15.1-21.9-9.2-19.8-18.5-19S313,201.7,313.9,213Z"/><path class="e3bd9557-807b-4be7-8130-94a2506e1f94" d="M330.6,176.8c-3.5,2.8-5,6.8-3.2,9.1s6,1.9,9.6-.8,5-6.9,3.2-9.1S334.2,174.1,330.6,176.8Z"/><path class="ac9f7077-62e1-4f72-9938-61bea3a1410d" d="M362.6,176.7c-.7,2.8,1.9,5.9,5.8,6.9s7.6-.4,8.3-3.2-1.9-5.8-5.7-6.9S363.3,174,362.6,176.7Z"/><path class="b69d3121-2000-4eb0-be9a-db6ba3fd5fda" d="M348.4,181.8c-1.4.6-2.2,1.6-1.9,2.2s1.6.7,2.9.1,2.2-1.6,1.9-2.3S349.7,181.1,348.4,181.8Z"/><path class="a9bcb7c9-6ee3-4806-9985-54816be5036f" d="M334.1,239c-1.1-1-2.3-1.4-2.8-.8s0,1.7,1.1,2.7,2.3,1.4,2.8.8S335.2,240,334.1,239Z"/><path class="a5560144-7bb0-4cb8-af3a-c84ea552a6da" d="M387.6,196.2c.9,3.5,3.4,6,5.6,5.4s3.2-3.9,2.2-7.5-3.4-6-5.6-5.4S386.6,192.6,387.6,196.2Z"/><path class="a6491bf6-2310-45b5-99e4-4176d445b728" d="M317.8,182.1c-1.1,1.6-2.2,3.3-3.2,5.1-20.6-4.5-34.6-5.6-35.7-2.2-1.8,5.7,32.9,21.7,77.5,35.8s82.1,20.8,83.9,15.1c1.1-3.4-11-10.5-30.5-18.7a40.2,40.2,0,0,0,.3-6c30,12.4,49.3,24.2,47.4,30.2-2.7,8.6-48.7,1.8-102.8-15.2s-95.7-37.9-93-46.6C263.6,173.6,286.2,175,317.8,182.1Z"/><path class="b0612ea0-3ce3-476d-929a-6933000726d0" d="M392.8,212.7c-.2,1.2.4,2.3,1.2,2.4s1.7-.8,1.9-1.9-.4-2.3-1.2-2.4S393,211.5,392.8,212.7Z"/><path class="ba5188a6-9182-44c3-9c12-792700d26142" d="M215.4,259.6a5.5,5.5,0,0,0,5.4-3.3l3.8-8.6-.5,9.4a5.5,5.5,0,0,0,3.3,5.4l8.5,3.8-9.3-.5a5.5,5.5,0,0,0-5.4,3.3l-3.8,8.6.6-9.4a5.5,5.5,0,0,0-3.4-5.4l-8.5-3.8Z"/><path class="ba5188a6-9182-44c3-9c12-792700d26142" d="M53.1,274.8a6.8,6.8,0,0,0,4.6-6.3l.4-11.6,3.7,11a6.9,6.9,0,0,0,6.3,4.6l11.6.4-10.9,3.7a7,7,0,0,0-4.7,6.4l-.3,11.6-3.8-11a6.9,6.9,0,0,0-6.3-4.7l-11.6-.3Z"/><path class="ba5188a6-9182-44c3-9c12-792700d26142" d="M317.3,119a2.8,2.8,0,0,0,2.9-2l2-4.9v5.3a3.3,3.3,0,0,0,2,3l4.9,1.9h-5.3a3,3,0,0,0-3,1.9l-1.9,5v-5.3a3.3,3.3,0,0,0-2-3l-4.9-2Z"/><path class="ba5188a6-9182-44c3-9c12-792700d26142" d="M140.4,260.8a3,3,0,0,0,3.1-1.5L146,255l-.8,4.9a3,3,0,0,0,1.4,3.1l4.4,2.5-5-.9a3,3,0,0,0-3,1.5l-2.5,4.4.8-5a2.9,2.9,0,0,0-1.5-3l-4.3-2.5Z"/><path class="ba5188a6-9182-44c3-9c12-792700d26142" d="M187,19.8a2.8,2.8,0,0,0,1.7-2.6V12.6l1.7,4.3a2.9,2.9,0,0,0,2.6,1.7h4.6l-4.3,1.7a2.9,2.9,0,0,0-1.7,2.6v4.6l-1.7-4.3a2.8,2.8,0,0,0-2.6-1.7h-4.6Z"/><path class="ba5188a6-9182-44c3-9c12-792700d26142" d="M118.9,174.3a3.1,3.1,0,0,0,2.8-1.8l1.9-4.7v5a2.8,2.8,0,0,0,1.8,2.9l4.6,1.9-5-.2a2.9,2.9,0,0,0-2.8,1.9l-2,4.6.2-5a3,3,0,0,0-1.8-2.9l-4.6-1.9Z"/><path class="bb16b476-cd5e-4df0-a3e5-cdfc9285e7cd" d="M210.8,182.5,203,174l37.4-17.8L231,184.7a17.2,17.2,0,0,1-10.6,10.9l-40.1,14.2,29.3-18.5A5.8,5.8,0,0,0,210.8,182.5Z"/><path class="bb16b476-cd5e-4df0-a3e5-cdfc9285e7cd" d="M181.7,145.1l6.4,9.7,26.4-32-29.9,2.1a17.1,17.1,0,0,0-13.1,7.7L147.9,168,173,144.1A5.7,5.7,0,0,1,181.7,145.1Z"/><path class="ef40103a-8027-4c2d-892a-02a513b997bb" d="M251.6,86.5c27.3-22.2,61.8-25.9,73.7-26.5a3.2,3.2,0,0,1,3.1,4.1c-3.5,11.4-15.5,43.9-43.7,65-22.3,16.6-62.2,38.4-79.6,47.7a11.6,11.6,0,0,1-14.5-3.1l-5.3-6.8a11.5,11.5,0,0,1,.6-14.8C199.2,137.4,230.1,104.1,251.6,86.5Z"/><path class="a6491bf6-2310-45b5-99e4-4176d445b728" d="M278.8,99.5a217.2,217.2,0,0,1-14.7-21.6c24.5-14.6,51-17.4,61.2-17.9a3.2,3.2,0,0,1,3.1,4.1c-3,9.7-12.2,34.8-32.3,55A195.1,195.1,0,0,1,278.8,99.5Z"/><path class="bb16b476-cd5e-4df0-a3e5-cdfc9285e7cd" d="M217.4,142.5l11.9-4.4-7.2,10.5a44.9,44.9,0,0,1-13,12.3l-45,28,38.1-36.8A44.5,44.5,0,0,1,217.4,142.5Z"/><polygon class="ba5188a6-9182-44c3-9c12-792700d26142" points="143.3 217.4 195.9 184.3 189.1 181.7 143.3 217.4"/><polygon class="ba5188a6-9182-44c3-9c12-792700d26142" points="131.4 202.1 176.4 159.1 177.2 166.4 131.4 202.1"/><polygon class="ba5188a6-9182-44c3-9c12-792700d26142" points="112.5 229.1 159.9 195.6 156.6 191.3 112.5 229.1"/><rect class="e46db6d0-3fcf-4220-bcdd-81e3888e1ea7" x="46.3" y="5.5" width="126.7" height="86.2" transform="translate(219.4 97.2) rotate(-180)"/><polygon class="ba5188a6-9182-44c3-9c12-792700d26142" points="46.3 91.7 173 91.7 180.8 106.5 38.6 106.5 46.3 91.7"/><polygon class="ae9e6492-8052-4699-af15-612dc756d69c" points="49.6 96.5 169.8 96.5 171.9 100.9 47.5 100.9 49.6 96.5"/><rect class="b1d9db17-0fcb-4fee-abaf-65967fd6ebb8" x="53.5" y="12.9" width="112.3" height="71.38" transform="translate(219.4 97.2) rotate(-180)"/><rect class="ae9e6492-8052-4699-af15-612dc756d69c" x="38.6" y="106.5" width="142.1" height="5.83" transform="translate(219.4 218.9) rotate(-180)"/><path class="ba5188a6-9182-44c3-9c12-792700d26142" d="M129.4,33.5c-1.9,0-3.1-1.6-3.1-4s1.2-3.9,3.1-3.9,3.1,1.6,3.1,3.9S131.4,33.5,129.4,33.5Zm0-1.7c.9,0,1.4-.8,1.4-2.3s-.5-2.2-1.4-2.2-1.3.8-1.3,2.2S128.5,31.8,129.4,31.8Z"/><path class="ba5188a6-9182-44c3-9c12-792700d26142" d="M122,25.7l2,.7-.5,1.5-1.3-.3v5.7h-1.7V25.7Z"/><path class="ba5188a6-9182-44c3-9c12-792700d26142" d="M115.5,25.7l1.9.7-.4,1.5-1.3-.3v5.7h-1.8V25.7Z"/><path class="ba5188a6-9182-44c3-9c12-792700d26142" d="M108.9,25.7l2,.7-.4,1.5-1.3-.3v5.7h-1.8V25.7Z"/><path class="ba5188a6-9182-44c3-9c12-792700d26142" d="M101.1,33.5c-2,0-3.1-1.6-3.1-4s1.1-3.9,3.1-3.9,3.1,1.6,3.1,3.9S103.1,33.5,101.1,33.5Zm0-1.7c.9,0,1.3-.8,1.3-2.3s-.4-2.2-1.3-2.2-1.4.8-1.4,2.2S100.2,31.8,101.1,31.8Z"/><path class="ba5188a6-9182-44c3-9c12-792700d26142" d="M92.1,33.5c-2,0-3.1-1.6-3.1-4s1.1-3.9,3.1-3.9,3.1,1.6,3.1,3.9S94.1,33.5,92.1,33.5Zm0-1.7c.9,0,1.4-.8,1.4-2.3s-.5-2.2-1.4-2.2-1.3.8-1.3,2.2S91.2,31.8,92.1,31.8Z"/><path class="ba5188a6-9182-44c3-9c12-792700d26142" d="M130.7,38l2,.7-.4,1.5-1.3-.4v5.8h-1.8V38Z"/><path class="ba5188a6-9182-44c3-9c12-792700d26142" d="M122.9,45.7c-2,0-3.1-1.5-3.1-3.9s1.1-3.9,3.1-3.9,3.1,1.6,3.1,3.9S124.9,45.7,122.9,45.7Zm0-1.6c.9,0,1.4-.8,1.4-2.3s-.5-2.2-1.4-2.2-1.4.7-1.4,2.2S122,44.1,122.9,44.1Z"/><path class="ba5188a6-9182-44c3-9c12-792700d26142" d="M115.5,38l1.9.7-.4,1.5-1.3-.4v5.8h-1.8V38Z"/><path class="ba5188a6-9182-44c3-9c12-792700d26142" d="M108.9,38l2,.7-.4,1.5-1.3-.4v5.8h-1.8V38Z"/><path class="ba5188a6-9182-44c3-9c12-792700d26142" d="M101.1,45.7c-2,0-3.1-1.5-3.1-3.9s1.1-3.9,3.1-3.9,3.1,1.6,3.1,3.9S103.1,45.7,101.1,45.7Zm0-1.6c.9,0,1.3-.8,1.3-2.3s-.4-2.2-1.3-2.2-1.4.7-1.4,2.2S100.2,44.1,101.1,44.1Z"/><path class="ba5188a6-9182-44c3-9c12-792700d26142" d="M92.1,45.7c-2,0-3.1-1.5-3.1-3.9s1.1-3.9,3.1-3.9,3.1,1.6,3.1,3.9S94.1,45.7,92.1,45.7Zm0-1.6c.9,0,1.4-.8,1.4-2.3s-.5-2.2-1.4-2.2-1.3.7-1.3,2.2S91.2,44.1,92.1,44.1Z"/><path class="ba5188a6-9182-44c3-9c12-792700d26142" d="M129.1,58c-1.9,0-3.1-1.6-3.1-3.9s1.2-4,3.1-4,3.1,1.7,3.1,4S131.1,58,129.1,58Zm0-1.6c.9,0,1.4-.8,1.4-2.3s-.5-2.3-1.4-2.3-1.3.8-1.3,2.3S128.2,56.4,129.1,56.4Z"/><path class="ba5188a6-9182-44c3-9c12-792700d26142" d="M120.7,58c-2,0-3.1-1.6-3.1-3.9s1.1-4,3.1-4,3.1,1.7,3.1,4S122.6,58,120.7,58Zm0-1.6c.9,0,1.3-.8,1.3-2.3s-.4-2.3-1.3-2.3-1.4.8-1.4,2.3S119.8,56.4,120.7,56.4Z"/><path class="ba5188a6-9182-44c3-9c12-792700d26142" d="M113.7,50.3l2,.7-.4,1.5-1.4-.4v5.8h-1.7V50.3Z"/><path class="ba5188a6-9182-44c3-9c12-792700d26142" d="M107.7,50.3l2,.7-.4,1.5-1.4-.4v5.8h-1.7V50.3Z"/><path class="ba5188a6-9182-44c3-9c12-792700d26142" d="M100.4,58c-2,0-3.1-1.6-3.1-3.9s1.1-4,3.1-4,3.1,1.7,3.1,4S102.3,58,100.4,58Zm0-1.6c.9,0,1.3-.8,1.3-2.3s-.4-2.3-1.3-2.3-1.4.8-1.4,2.3S99.5,56.4,100.4,56.4Z"/><path class="ba5188a6-9182-44c3-9c12-792700d26142" d="M91.9,58c-2,0-3.1-1.6-3.1-3.9s1.1-4,3.1-4,3.1,1.7,3.1,4S93.9,58,91.9,58Zm0-1.6c.9,0,1.4-.8,1.4-2.3s-.5-2.3-1.4-2.3-1.3.8-1.3,2.3S91,56.4,91.9,56.4Z"/><path class="ba5188a6-9182-44c3-9c12-792700d26142" d="M129.6,70.3c-2,0-3.1-1.6-3.1-3.9s1.1-4,3.1-4,3.1,1.6,3.1,4S131.6,70.3,129.6,70.3Zm0-1.7c.9,0,1.3-.8,1.3-2.2s-.4-2.3-1.3-2.3-1.4.8-1.4,2.3S128.7,68.6,129.6,68.6Z"/><path class="ba5188a6-9182-44c3-9c12-792700d26142" d="M121.7,62.6l2,.7-.5,1.5-1.3-.4v5.8h-1.7V62.6Z"/><path class="ba5188a6-9182-44c3-9c12-792700d26142" d="M114.7,62.6l2,.7-.4,1.5-1.4-.4v5.8h-1.7V62.6Z"/><path class="ba5188a6-9182-44c3-9c12-792700d26142" d="M107.7,62.6l2,.7-.4,1.5-1.4-.4v5.8h-1.7V62.6Z"/><path class="ba5188a6-9182-44c3-9c12-792700d26142" d="M100.7,62.6l2,.7-.4,1.5-1.4-.4v5.8H99.2V62.6Z"/><path class="ba5188a6-9182-44c3-9c12-792700d26142" d="M92.4,70.3c-2,0-3.1-1.6-3.1-3.9s1.1-4,3.1-4,3.1,1.6,3.1,4S94.4,70.3,92.4,70.3Zm0-1.7c.9,0,1.4-.8,1.4-2.2s-.5-2.3-1.4-2.3-1.3.8-1.3,2.3S91.5,68.6,92.4,68.6Z"/><rect class="b0f2a122-a60b-42ed-ba63-6c7b71b1d752" x="29.1" y="155.8" width="17.4" height="9.71" transform="translate(-24.1 7.7) rotate(-8.8)"/><rect class="ba5188a6-9182-44c3-9c12-792700d26142" x="110.7" y="133.2" width="27.8" height="28.23" transform="translate(-21 20.7) rotate(-8.8)"/><rect class="b1653dda-0a73-45a6-b29f-63d1c086017b" x="131.5" y="131.6" width="6.9" height="28.23" transform="translate(-20.7 22.3) rotate(-8.8)"/><rect class="ba5188a6-9182-44c3-9c12-792700d26142" x="87.3" y="138.8" width="23.7" height="24.84" transform="translate(-21.9 16.9) rotate(-8.8)"/><rect class="bcc0e4b3-2aa0-4c56-9372-9e39f42eed42" x="104.1" y="137.5" width="6.9" height="24.84" transform="translate(-21.6 18.2) rotate(-8.8)"/><rect class="ba5188a6-9182-44c3-9c12-792700d26142" x="42.6" y="146.1" width="45.1" height="20.76" transform="translate(-23.1 11.8) rotate(-8.8)"/><rect class="b2e18eba-635a-471c-8533-0718c3db8481" x="80.6" y="143.2" width="6.9" height="20.76" transform="translate(-22.4 14.6) rotate(-8.8)"/><path class="a6491bf6-2310-45b5-99e4-4176d445b728" d="M77,188.7h0a3.1,3.1,0,0,0,2.5-3.5l-3.1-20.6-6.1.9,3.2,20.6A3.1,3.1,0,0,0,77,188.7Z"/><rect class="bb16b476-cd5e-4df0-a3e5-cdfc9285e7cd" x="60.8" y="160.1" width="24.8" height="9.39" transform="matrix(0.99, -0.15, 0.15, 0.99, -24.29, 13.11)"/><rect class="bb16b476-cd5e-4df0-a3e5-cdfc9285e7cd" x="67.9" y="181.3" width="16.7" height="5.93" transform="translate(-27.2 13.8) rotate(-8.8)"/><path class="bb16b476-cd5e-4df0-a3e5-cdfc9285e7cd" d="M105,248.8h0a1.9,1.9,0,0,0,1.3-2.5L85.1,180.1a1.9,1.9,0,0,0-2.5-1.3h0a1.9,1.9,0,0,0-1.2,2.5l21.1,66.3A2,2,0,0,0,105,248.8Z"/><path class="bb16b476-cd5e-4df0-a3e5-cdfc9285e7cd" d="M68.3,254.5h0a2,2,0,0,1-2-2l.3-69.6a2,2,0,0,1,2-2h0a2,2,0,0,1,2,2l-.3,69.6A2,2,0,0,1,68.3,254.5Z"/><path class="ba5188a6-9182-44c3-9c12-792700d26142" d="M239.6,39.4a20.8,20.8,0,0,0,3.7-23.7,18.5,18.5,0,0,1,5.6,3.8,20.8,20.8,0,0,1,.2,29.3,20.5,20.5,0,0,1-29.2.2,19.4,19.4,0,0,1-4-5.5A20.7,20.7,0,0,0,239.6,39.4Z"/><path class="a904233f-fae8-43d6-828a-da6d2827a809" d="M412.6,639.7c0,5.2,36.6,9.3,81.8,9.3s81.9-4.1,81.9-9.3-36.7-9.2-81.9-9.2S412.6,634.6,412.6,639.7Z"/><path class="fd8b485d-fec1-4fea-8e82-a73455f992e2" d="M518.5,595.9v20.5l12.7,9.8,23.7,7.9,3.2,8.8H493.9s.4-11,7.8-25.7V595.9Z"/><path class="e3410fa9-d656-4fd3-bdea-898e711332dc" d="M467.5,588.2l-8.7,21.4,7.4,14.3,18.2,7.7,3.1,8.1H452.9l-25.6-21.1a62.3,62.3,0,0,1,16.9-13l5.4-18.9Z"/><path class="abb7ffe3-f027-46b7-827d-f88bd752d975" d="M553.9,634.1l3.2,8.8H492.9s.4-11,7.8-25.7l16.8-.8,12.7,9.8Z"/><path class="ad17df0b-d69d-4ff7-909f-77d1126d04f5" d="M499,392.9H453.1l21.8,103.4s-20.9,14.4-30,94.8l23.7,2.6,37.2-91.4Z"/><path class="b6a0f554-704a-492f-946c-c7c28e82474d" d="M499,392.9l6.8,109.4-13.5,33.3-40.8,15.1c10-45.1,23.4-54.4,23.4-54.4L453.1,392.9Z"/><polygon class="a6491bf6-2310-45b5-99e4-4176d445b728" points="537.2 329.5 543.7 326.4 537.6 318.9 534.4 323.1 537.2 329.5"/><path class="b652331b-38d9-4fe6-bd21-161168e5ee71" d="M578.7,307.8l-3.8-8s-2.9-12.4-23.7-12l-21.4,36.1s10.6-1.4,19.4,8.8Z"/><path class="ff1217d3-952c-4474-9df2-5f11041eba11" d="M574.9,299.8l-25.7,32.9s20.9-6.8,30.7,3.6l28.2-26.7A35,35,0,0,0,574.9,299.8Z"/><path class="b5a049dc-281d-4467-8860-76abd3c84770" d="M553.5,244.8l-2.5,2.6s-3.1,4.1-3.8,6.1,0,5.8,0,5.8l-5.4-.6s-7.2,9.7-9.6,10.7-9.8-3.7-12.4-3.9-7.6,5.5-7.6,5.5L495,260.6,507.3,246l6.2-19.4,42.8,2.2,7.2,12.2Z"/><path class="b31fa4a8-85cf-4213-95a0-71a927c1dca3" d="M518.9,389.9l5.5,102-2.8,110.7H496.7s-10-77.7,0-102.3L463.3,389.9Z"/><polygon class="a904233f-fae8-43d6-828a-da6d2827a809" points="464.2 392.9 463.3 389.9 518.9 389.9 519.4 398.8 457.4 413.4 453.1 392.9 464.2 392.9"/><path class="a6491bf6-2310-45b5-99e4-4176d445b728" d="M575.5,335.1s7.2-12.2,11.7-17.6c0,0,9.6-2.1,9.6-.4s-8.7,2.3-6.6,5.5,13.3-8.4,13.3-8.4,4.6,16.4-2.5,20.9-24,8.9-24,8.9Z"/><path class="a6491bf6-2310-45b5-99e4-4176d445b728" d="M533.7,317s-.1-4,3.9-9.6,13.6-5.4,13.6-5.4-3.5,5.6-7.7,7.5c0,0-1.8,11.3-7,12.7C535.6,322.5,533.9,318.7,533.7,317Z"/><polygon class="abb7ffe3-f027-46b7-827d-f88bd752d975" points="540.1 328.7 533.7 317 519.6 323.9 527.1 338.4 540.1 328.7"/><path class="a7e84366-9d18-45bd-81e4-af95da8a4052" d="M554.6,237.3s-10.4,1.8-17,1.4-7.2,7.8-13.4,8.7c0,0,2.5-6.9,0-10.5s-7.9-2.2-7.9,2.7v7.8s-5.9,3.7-9.8,0,.5-6.3,0-12.5-1.1-28,23.4-32.6,30,14.8,31.1,23.4,6,12.3,5.5,16.8-9.3,7.8-15.5,4.9Z"/><path class="b1adbf8c-4d4b-40f0-abbd-8989e4f7b0b3" d="M524.4,383v7a5.7,5.7,0,0,0-.1,1.3v6a1.3,1.3,0,0,0-.1.6v.9H450.5s4-22,6.3-33.2c.2-.7.3-1.5.5-2.4a8.8,8.8,0,0,0,.2-1.7c2.2-14.3,4.6-46.7,9.4-65.1,5.3-20.3,16.4-28.3,16.4-28.3l5.9-11.3c28.7,5.6,25.9,20.3,25.9,20.3,7.1,10.8,8.9,54.3,9.2,86.3h0v.6a15.5,15.5,0,0,1,.1,2.2V383Z"/><path class="a904233f-fae8-43d6-828a-da6d2827a809" d="M509.6,309.6l14,24.6c1.4,31.9.6,64.6.6,64.6-25.9-29.8-27.4-98.3-27.4-98.3Z"/><path class="f4f60986-7dbd-40f4-9811-8e16c4ae726a" d="M578,331.3l-43.6,9s-11.1-36.2-13.8-45.4-7.6-16.8-15.7-15-10.6,17.7-5.8,33.9,13,52.5,23.9,54.3,60-23.5,60-23.5Z"/><path class="abb7ffe3-f027-46b7-827d-f88bd752d975" d="M466.2,623.9l18.2,7.7,3.1,8.1H452.9l-25.6-21.1a62.3,62.3,0,0,1,16.9-13l14.6,4Z"/></g><path class="a4134cf2-4295-4540-b1bb-a0b1d0eb5eab" d="M215.7,538.5c-26.6,0-22.8,37.6-22.8,37.6s-24.9,13-7.8,44.7c0,0-27.1,18.6,8.5,49.5,5,18.9,37.3,30.7,44.6-2.2,0,0,32.2-30.6,9.6-40.8,0,0,14.8-38.2-7.7-49.2C240.1,578.1,240.8,538.5,215.7,538.5Z"/><rect class="e07529ce-ad7a-4d2f-8aa8-4ce1d6a999a0" x="212.5" y="571.7" width="6.4" height="147.2"/><rect class="e07529ce-ad7a-4d2f-8aa8-4ce1d6a999a0" x="209.8" y="571.2" width="24.8" height="6.38" transform="translate(-383.2 461.2) rotate(-58.3)"/><rect class="e07529ce-ad7a-4d2f-8aa8-4ce1d6a999a0" x="203" y="578" width="6.4" height="28.62" transform="translate(-342.1 287.7) rotate(-41.8)"/><rect class="e07529ce-ad7a-4d2f-8aa8-4ce1d6a999a0" x="207.8" y="605" width="39.6" height="6.38" transform="translate(-395.1 424.1) rotate(-53)"/><rect class="e07529ce-ad7a-4d2f-8aa8-4ce1d6a999a0" x="200.7" y="618.7" width="6.4" height="31.81" transform="translate(-403.6 360.3) rotate(-47.9)"/><rect class="e07529ce-ad7a-4d2f-8aa8-4ce1d6a999a0" x="208.7" y="648" width="37.9" height="6.38" transform="translate(-421.7 418.3) rotate(-51)"/><path class="f56ce89c-c2c3-48d8-9e97-97f086e34066" d="M102.3,539.3c-26.6,0-22.8,37.6-22.8,37.6s-24.8,13-7.8,44.6c0,0-27.1,18.7,8.5,49.6,5.1,18.9,37.3,30.6,44.6-2.2,0,0,32.2-30.7,9.7-40.8,0,0,14.8-38.2-7.8-49.2C126.7,578.9,127.4,539.3,102.3,539.3Z"/><rect class="e07529ce-ad7a-4d2f-8aa8-4ce1d6a999a0" x="99.1" y="572.5" width="6.4" height="147.2"/><rect class="e07529ce-ad7a-4d2f-8aa8-4ce1d6a999a0" x="96.4" y="572" width="24.8" height="6.38" transform="translate(-437.6 365.3) rotate(-58.3)"/><rect class="e07529ce-ad7a-4d2f-8aa8-4ce1d6a999a0" x="89.6" y="578.8" width="6.4" height="28.62" transform="translate(-371.4 212.4) rotate(-41.8)"/><rect class="e07529ce-ad7a-4d2f-8aa8-4ce1d6a999a0" x="94.4" y="605.7" width="39.6" height="6.38" transform="translate(-440.9 333.8) rotate(-53)"/><rect class="e07529ce-ad7a-4d2f-8aa8-4ce1d6a999a0" x="87.3" y="619.5" width="6.4" height="31.81" transform="translate(-441.5 276.5) rotate(-47.9)"/><rect class="e07529ce-ad7a-4d2f-8aa8-4ce1d6a999a0" x="95.3" y="648.8" width="37.9" height="6.38" transform="translate(-464.3 330.5) rotate(-51)"/></g></g></svg>