<svg id="b083947d-a7ec-4e6d-a641-ac64bc4859b1" data-name="Layer 1" xmlns="http://www.w3.org/2000/svg" xmlns:xlink="http://www.w3.org/1999/xlink" viewBox="0 0 400 400"><defs><style>.b45f7831-481b-4be7-990c-1738bc9e6493{fill:none;}.ff7fbd6a-96ee-4056-acc2-a77f25a2f753{fill:#cadfee;}.a06eabc2-fecd-41cc-9c05-216a9df52ad3{fill:#fff;}.a04a5619-33c9-4203-9547-79220faa6856,.a1530de8-99ac-4f5e-ba19-c13190f686a8{opacity:0.5;}.a1530de8-99ac-4f5e-ba19-c13190f686a8,.aaa8e931-29f8-4c97-872b-7a7901e8b81f{isolation:isolate;}.a1530de8-99ac-4f5e-ba19-c13190f686a8{fill:url(#a91768d8-50b7-464e-aa66-0074fcb1ef7b);}.a972211c-3d4c-4952-9c51-f0cb54e9e1fa{fill:url(#e3ea03eb-4c33-45b2-b6ce-a1d82e3d0518);}.a9c3d175-a331-4a8f-88e8-f088554e1508{fill:#f5f6f6;}.b8f94f79-f667-4542-a204-979e572ef6c7{fill:#6466af;}.f0ff2700-9ffa-4bc9-8833-c2ad69c7d6f6{clip-path:url(#fe86f820-4974-4978-a3ce-265cdeefe3cf);}.b720f7ed-152a-4dc9-b8ca-e09248ed685f{fill:url(#af3771e5-eb6e-4b47-aade-0da367dde3ef);}.a2f6db24-c2a1-4495-848a-b4f21380a574{fill:url(#b739d590-9cac-4154-ba1a-7bd9bf949f80);}.b88a6480-381c-4d3e-8de2-a9158c60b9bb{fill:#f8a57e;}.fc27e3ea-c5c2-4db4-a1c9-f6b5db3916f0{fill:#57bf99;}.a73f7804-c8bd-4f20-9449-a6e08ad98843,.aaa8e931-29f8-4c97-872b-7a7901e8b81f{fill:#010101;}.aaa8e931-29f8-4c97-872b-7a7901e8b81f,.fb35da45-1d91-4b76-bb51-7a7938d1f93f{opacity:0.05;}.ff8dc8f8-f4cb-4b55-99c5-3f46828b2543{fill:#5b3033;}.ea58b357-af28-4182-a1bd-059d0413642f{fill:url(#ad84fb8f-11a3-4392-b527-2a7ddd718a21);}.f20a8c1a-62b6-401d-af71-3485cf244e92{fill:url(#aa46aaf5-d548-4d20-bd4e-563453731512);}.bd284908-9dd5-4914-9b1d-7225ea9d737d{fill:url(#f7a6074a-3276-4fd4-8e3a-2aa8c55b2cbe);}.ba142967-e8da-467c-b36e-3cf8f9830f83{fill:url(#ee20ee35-f3fa-4cb2-b3af-0b31d01eab58);}.bfeaa1e4-26e8-4d87-8b96-7f11f645e7f4{fill:#5d84c3;}.e30a8699-9005-43a8-87b7-86a8f8eb98c6{fill:#e0e1e0;}.bf8dfdac-23d5-4ade-bd82-5f8e4c1aa372{fill:url(#b6866ccb-949a-436c-a231-73da7a325793);}.b5bb9e69-c63b-4110-8f68-1ca503e80a4f{fill:url(#b2a4ec9b-34c7-43bf-a504-9abbe89c4e8f);}.bec75c11-2747-4ee1-81ba-03786da6ce55{fill:url(#ee2fa61b-8b12-460f-aee3-472e6fc91740);}</style><linearGradient id="a91768d8-50b7-464e-aa66-0074fcb1ef7b" x1="185.61" y1="361.81" x2="185.61" y2="401.39" gradientTransform="matrix(1, 0, 0, -1, 0, 402)" gradientUnits="userSpaceOnUse"><stop offset="0" stop-color="#818181" stop-opacity="0.25"/><stop offset="0.54" stop-color="#818181" stop-opacity="0.12"/><stop offset="1" stop-color="#818181" stop-opacity="0.1"/></linearGradient><linearGradient id="e3ea03eb-4c33-45b2-b6ce-a1d82e3d0518" x1="488.06" y1="204.29" x2="488.06" y2="245.07" gradientTransform="matrix(0.99, 0, 0, -1, -297.57, 284.96)" xlink:href="#a91768d8-50b7-464e-aa66-0074fcb1ef7b"/><clipPath id="fe86f820-4974-4978-a3ce-265cdeefe3cf"><rect id="b4c53248-9ff5-4c35-a8ce-10828160ce55" data-name="SVGID" class="b45f7831-481b-4be7-990c-1738bc9e6493" x="146.5" y="1.5" width="78.6" height="39.29"/></clipPath><linearGradient id="af3771e5-eb6e-4b47-aade-0da367dde3ef" x1="116.15" y1="330.09" x2="116.15" y2="342.31" xlink:href="#a91768d8-50b7-464e-aa66-0074fcb1ef7b"/><linearGradient id="b739d590-9cac-4154-ba1a-7bd9bf949f80" x1="468.8" y1="193.24" x2="468.8" y2="282.94" gradientTransform="matrix(1, 0, 0, -1, -302.98, 285)" xlink:href="#a91768d8-50b7-464e-aa66-0074fcb1ef7b"/><linearGradient id="ad84fb8f-11a3-4392-b527-2a7ddd718a21" x1="481.44" y1="230.25" x2="481.44" y2="244.24" gradientTransform="matrix(1, 0, 0, -1, -302.98, 285)" xlink:href="#a91768d8-50b7-464e-aa66-0074fcb1ef7b"/><linearGradient id="aa46aaf5-d548-4d20-bd4e-563453731512" x1="493.83" y1="223.99" x2="493.83" y2="244.52" gradientTransform="matrix(1, 0, 0, -1, -302.98, 285)" xlink:href="#a91768d8-50b7-464e-aa66-0074fcb1ef7b"/><linearGradient id="f7a6074a-3276-4fd4-8e3a-2aa8c55b2cbe" x1="247.75" y1="120.36" x2="247.75" y2="125.01" xlink:href="#a91768d8-50b7-464e-aa66-0074fcb1ef7b"/><linearGradient id="ee20ee35-f3fa-4cb2-b3af-0b31d01eab58" x1="485.32" y1="3.47" x2="485.32" y2="60.45" gradientTransform="matrix(1, 0, 0, -1, -302.98, 285)" xlink:href="#a91768d8-50b7-464e-aa66-0074fcb1ef7b"/><linearGradient id="b6866ccb-949a-436c-a231-73da7a325793" x1="252.12" y1="123.27" x2="252.12" y2="159.65" xlink:href="#a91768d8-50b7-464e-aa66-0074fcb1ef7b"/><linearGradient id="b2a4ec9b-34c7-43bf-a504-9abbe89c4e8f" x1="211.95" y1="73.5" x2="211.95" y2="121.23" xlink:href="#a91768d8-50b7-464e-aa66-0074fcb1ef7b"/><linearGradient id="ee2fa61b-8b12-460f-aee3-472e6fc91740" x1="284.71" y1="73.5" x2="284.71" y2="121.23" xlink:href="#a91768d8-50b7-464e-aa66-0074fcb1ef7b"/></defs><polygon class="ff7fbd6a-96ee-4056-acc2-a77f25a2f753" points="401.7 400.2 0.2 399.8 0 152.8 401.5 153.2 401.7 400.2"/><path class="a06eabc2-fecd-41cc-9c05-216a9df52ad3" d="M-2.4,116.4V250.7c37.3,33.8,85.3,65.6,133.9,65.6,79.8,0,184.1-99.1,270-144.2V116.4Z"/><rect class="a1530de8-99ac-4f5e-ba19-c13190f686a8" x="145.3" y="0.6" width="80.6" height="39.58"/><g class="a04a5619-33c9-4203-9547-79220faa6856"><path class="a972211c-3d4c-4952-9c51-f0cb54e9e1fa" d="M145.2,40.5l.2,40.2,80.7-.6-.3-40.2Zm78.2,37.2-75.9.6V74.1l75.8-.6Zm-.1-6.3-75.8.6V67.8l75.8-.5Zm0-6.2-75.9.6V61.6l75.8-.6Zm-.1-6.2-75.8.5V55.4l75.8-.6Zm0-6.3-75.9.6V49.1l75.9-.5Zm-.1-6.2-75.8.5V42.9l75.8-.6Z"/></g><path class="a9c3d175-a331-4a8f-88e8-f088554e1508" d="M146,40.2l.3,39.3,78.6-.6-.3-39.3Zm76.3,36.4-74,.5V73l73.9-.5Zm-.1-6.1-73.9.5V66.9l73.9-.5Zm0-6.2-74,.6V60.8l73.9-.5Zm-.1-6.1-73.9.6V54.7l73.9-.5Zm0-6.1-73.9.6V48.6l74-.6ZM222,46l-73.9.6V42.5l73.9-.6Z"/><rect id="bb01c6bf-c722-4ada-b122-4cf0a11962c5" data-name="c2f262c5-432c-497c-b342-014b49715688" class="b8f94f79-f667-4542-a204-979e572ef6c7" x="146.5" y="1.5" width="78.6" height="39.29"/><g class="f0ff2700-9ffa-4bc9-8833-c2ad69c7d6f6"><g class="a04a5619-33c9-4203-9547-79220faa6856"><polygon class="b720f7ed-152a-4dc9-b8ca-e09248ed685f" points="118.9 71.9 120.2 71 119.5 63 117.9 59.7 112.1 61.9 118.9 71.9"/><path class="a2f6db24-c2a1-4495-848a-b4f21380a574" d="M207.5,3c-3.5-1.7-6.2-.9-8,.5a11.9,11.9,0,0,0-3.8,4.9l-.5,1.3h0l-2.4,1.8-.7-1.7s-8.5-15.1-33.6,14.4h-.1s-2.1,2.6-4.1,5.5l-.2.4-.2.2v.3l-.2.2V31l-.2.2-.2.3V32l-.2.2v.3l-.2.3v1.1l-.2.4h0a.4.4,0,0,0-.1.3h-.1c0,.1-.1.2-.1.4h0a2.2,2.2,0,0,0-.1,1.1L117.9,59.7l1.8,3.7s23.9-9.5,40.2-19.8l-.7,14.5h0V59s-14.9,12.3-18.8,18.6l-6.6,3.9,6.9,10.3,1.7-1.2,1-8.2,27.3-21.9s5.2-9.5,5.3-17.4l1.1,4.3s2.4,6.7,4.1,7,1.7-5.2.5-6.8-.6-12.5-.6-12.5l.3-2.2,4.3-3.1h.1l.3,1.3h.8v.4h0l.5,10.4,3,11.7s2.4,6.7,4.1,6.9,1.7-5.2.5-6.8-.6-12.4-.6-12.4l1.3-9.1h0v-.2l2.5.2s2.5-8.8-1.7-12.7l-.8-1.6,1.6-1.2h0l.3-.2a7.3,7.3,0,0,0,10.1,0,5.8,5.8,0,0,0,3.4-.9l.6-.5a6.1,6.1,0,0,0,1.8-1.5C214,12.7,213,5.7,207.5,3Z"/></g><path class="b88a6480-381c-4d3e-8de2-a9158c60b9bb" d="M186,26.2l.8,15.8,2.9,11.4s2.4,6.5,4,6.7,1.6-5,.5-6.6-.6-12.1-.6-12.1L195.5,28Z"/><path class="a06eabc2-fecd-41cc-9c05-216a9df52ad3" d="M185,28.9l.4,2.6,11.9,1s2.4-8.6-1.7-12.3Z"/><path class="fc27e3ea-c5c2-4db4-a1c9-f6b5db3916f0" d="M158.6,24.7s-7.3,8.9-7,12.1L119.2,59.3l1.7,3.6s23.3-9.2,39.1-19.2l-.7,14.9s-14.5,12-18.2,18.1l2.9,4.7,26.5-21.3s7.9-14.4,4.1-22.2Z"/><polygon class="a73f7804-c8bd-4f20-9449-a6e08ad98843" points="113.6 61.5 119.2 59.3 120.7 62.5 121.4 70.3 120.2 71.2 113.6 61.5"/><polygon class="a73f7804-c8bd-4f20-9449-a6e08ad98843" points="141.1 76.7 134.6 80.4 141.4 90.4 143 89.3 144 81.3 141.1 76.7"/><path class="a06eabc2-fecd-41cc-9c05-216a9df52ad3" d="M195.6,20.2l-4.4-9.3S182.9-3.8,158.5,25l16.1,12.9L185,30.3Z"/><path class="b88a6480-381c-4d3e-8de2-a9158c60b9bb" d="M199,7.4l3.9,5.3h0l-9.4,6.9a1.6,1.6,0,0,1-2.2-.4h0l-2.1-2.8a1.6,1.6,0,0,1,.4-2.2h0L199,7.3Z"/><path class="aaa8e931-29f8-4c97-872b-7a7901e8b81f" d="M194.5,10.6a6.8,6.8,0,0,0,1.9,6.9l4-2.9-3.9-5.4Z"/><path class="b88a6480-381c-4d3e-8de2-a9158c60b9bb" d="M197.5,6.5a7.1,7.1,0,0,1,9.8,1.6,7.1,7.1,0,0,1-11.4,8.3A7.1,7.1,0,0,1,197.5,6.5Z"/><path class="aaa8e931-29f8-4c97-872b-7a7901e8b81f" d="M198.4,8.1l-4.1,2.7.5-1.3s3.3-8.7,11.1-5c5.3,2.6,6.3,9.4,5.9,10.2a7.7,7.7,0,0,1-2,1.7,5,5,0,0,1-6.6-.9c-1.3-1.6-3.7-5-3.3-6.9h0c-.4-.7-.9-1-1.6-.5Z"/><path class="ff8dc8f8-f4cb-4b55-99c5-3f46828b2543" d="M198.7,7.9l-4.1,2.7.5-1.3s3.3-8.7,11.1-5c5.3,2.6,6.3,9.4,5.9,10.1a7.7,7.7,0,0,1-2,1.7,4.9,4.9,0,0,1-6.6-.8c-1.3-1.6-3.7-5-3.3-6.9h0c-.4-.7-.9-1-1.6-.5Z"/><path class="b88a6480-381c-4d3e-8de2-a9158c60b9bb" d="M198.7,7.6c.7-.5,1.5-.7,1.7-.3s-.1,1-.8,1.5-1.4.7-1.7.3S198,8.1,198.7,7.6Z"/><polygon class="aaa8e931-29f8-4c97-872b-7a7901e8b81f" points="183.7 30.1 185.5 28.5 185.6 31 185.2 30 183.7 30.1"/><polygon class="aaa8e931-29f8-4c97-872b-7a7901e8b81f" points="186.2 31.6 186.3 32 194.8 32.6 194.9 32.3 186.2 31.6"/><g class="fb35da45-1d91-4b76-bb51-7a7938d1f93f"><path class="a73f7804-c8bd-4f20-9449-a6e08ad98843" d="M154.6,30.1a23.2,23.2,0,0,0-2.9,5.6l1-.7C152.6,33.9,153.5,32,154.6,30.1Z"/><path class="a73f7804-c8bd-4f20-9449-a6e08ad98843" d="M160.4,56.9l.7-15C145.3,52,122,61.1,122,61.1l-1.1,1.8s23.2-9.2,39.1-19.2l-.7,14.1Z"/></g><path class="b88a6480-381c-4d3e-8de2-a9158c60b9bb" d="M173,20.3l.8,15.8,2.9,11.3s2.4,6.5,4,6.8,1.6-5.1.5-6.7-.6-12.1-.6-12.1l1.8-13.3Z"/><path class="aaa8e931-29f8-4c97-872b-7a7901e8b81f" d="M173.9,12.6s-2,5.3-1.1,7.1"/><polygon class="aaa8e931-29f8-4c97-872b-7a7901e8b81f" points="173 20 173 21 182.4 22.6 182.5 21.8 173 20"/><polygon class="a06eabc2-fecd-41cc-9c05-216a9df52ad3" points="175.1 12 172.9 20.3 182.4 22.1 184.9 11.6 175.1 12"/></g><g class="a04a5619-33c9-4203-9547-79220faa6856"><path class="ea58b357-af28-4182-a1bd-059d0413642f" d="M174.8,40.8l1.9,7s2.4,6.7,4.1,6.9,1.7-5.1.5-6.7-.8-4.2-.8-7.2Z"/></g><path class="b88a6480-381c-4d3e-8de2-a9158c60b9bb" d="M174.9,40.8l1.8,6.9s2.4,6.5,4,6.8,1.6-5.1.5-6.7-.8-4.1-.7-7Z"/><g class="a04a5619-33c9-4203-9547-79220faa6856"><path class="f20a8c1a-62b6-401d-af71-3485cf244e92" d="M193.9,40.5h-7.4v1.9L189.7,54s2.4,6.7,4.2,7,1.7-5.2.5-6.8-.6-12.5-.6-12.5Z"/></g><path class="b88a6480-381c-4d3e-8de2-a9158c60b9bb" d="M193.8,40.5h-7.1v1.8l2.9,11.4s2.4,6.5,4,6.7,1.6-5,.5-6.6-.6-12.1-.6-12.1Z"/><g class="a04a5619-33c9-4203-9547-79220faa6856"><rect class="bd284908-9dd5-4914-9b1d-7225ea9d737d" x="203.5" y="277" width="88.5" height="4.66"/></g><rect class="b8f94f79-f667-4542-a204-979e572ef6c7" x="205" y="277" width="86.4" height="3.78"/><g class="a04a5619-33c9-4203-9547-79220faa6856"><path class="ba142967-e8da-467c-b36e-3cf8f9830f83" d="M223.2,265.7l.4.2h0l11.3,4.8,14.3-17s2.2-2.4-.4-4.1-4.2,2.6-4.2,2.6l-11.1,11.9-9.3-4.7v-1l-8.5-5-.6-.9v-.2l-.5-.4-.2-.3,1.4-1.5a7.6,7.6,0,0,0,9.7-4.7,5,5,0,0,0,.3-1.3,3.4,3.4,0,0,0,2,0,5.2,5.2,0,0,0,4-3.2l-.3.2.3-.6c-.3.7-3-.2-3.5-.5a5.7,5.7,0,0,1-2.5-2.8c-1.3-2.4-3.6-3.3-6.3-3.5a13.7,13.7,0,0,0-6,.8,7.4,7.4,0,0,0-4.2,4.1,7.5,7.5,0,0,0-.3,2,5,5,0,0,0,1.6,4l.3.2a6.4,6.4,0,0,1,.2.7l-.4.3h0l-2.4,2.6h-.1l-25.6,3.9h0c-.8-.5-4.7-2.5-14.3.2-3.6,1-9.7.9-16.2.3-4.5-5.7-7.4-23.3-7.4-23.3l-1.2-5L128.7,228s6.9,1.5,8,3.4,2.9,13.7,3.3,19.8c-8.9-1.4-16.2-2.9-16.2-2.9l-5.4-1.9-3.8,13.3s4.2-4.5,8-4.9c0,0,19.1,9.1,33.2,7.2,5.5-.7,10.8,1.6,15.3,2.3a77.4,77.4,0,0,0,11.8,1.2v4.2s15.7-.7,26.1-4a15.6,15.6,0,0,0,1.6,3.8l1.9-.9L223,281.5l20.6-8.4s3-1.1,1.5-3.8-4.9.4-4.9.4L224.9,275l-6.4-8.9h0l-.3-.4,1.4-.6-.2-.6,3.6,2.9Z"/></g><polygon class="b88a6480-381c-4d3e-8de2-a9158c60b9bb" points="210.8 254.8 206.1 250.4 213.9 241.9 218.6 246.3 210.8 254.8"/><path class="aaa8e931-29f8-4c97-872b-7a7901e8b81f" d="M213.5,242.3l-3.4,3.7a7.3,7.3,0,0,0,4.5,4.6l3.6-3.9Z"/><path class="b88a6480-381c-4d3e-8de2-a9158c60b9bb" d="M214.5,262.1l18.9,8.1,14-16.5s2.1-2.4-.4-4-4.1,2.6-4.1,2.6l-10.8,11.5-13.7-6.9Z"/><polygon class="fc27e3ea-c5c2-4db4-a1c9-f6b5db3916f0" points="213.5 252.7 223.2 258.2 221.9 267 212.8 259.7 213.5 252.7"/><path class="b88a6480-381c-4d3e-8de2-a9158c60b9bb" d="M217.4,235.8a7.4,7.4,0,1,1-7.4,7.4A7.4,7.4,0,0,1,217.4,235.8Z"/><path class="fc27e3ea-c5c2-4db4-a1c9-f6b5db3916f0" d="M211.3,249.7l-3.7-1.1-24.9,3.7.2,16.9s30.3-1.3,33.6-9.1l-2.2-7.8Z"/><polygon class="aaa8e931-29f8-4c97-872b-7a7901e8b81f" points="213.1 260 221.9 267 222.2 264 213.5 255.6 213.1 260"/><path class="bfeaa1e4-26e8-4d87-8b96-7f11f645e7f4" d="M182.9,252.5s-3.3-3-14.1,0-43.4-4.1-43.4-4.1l-1.1,6.3s18.5,8.9,32.2,7.1c5.4-.7,10.6,1.5,14.9,2.2a73.4,73.4,0,0,0,11.5,1.1Z"/><path class="a73f7804-c8bd-4f20-9449-a6e08ad98843" d="M125.4,248.4l-5.2-1.9-3.7,13.1s4-4.5,7.8-4.9Z"/><path class="bfeaa1e4-26e8-4d87-8b96-7f11f645e7f4" d="M138,232l7.8-1.8s3.7,22.3,9.3,24.1H141.3S140.2,232.8,138,232Z"/><path class="a73f7804-c8bd-4f20-9449-a6e08ad98843" d="M145.8,230.2l-1.1-4.9-14.5,3.4s6.7,1.5,7.8,3.3Z"/><path class="aaa8e931-29f8-4c97-872b-7a7901e8b81f" d="M218.6,234.6a12.6,12.6,0,0,0-5.8.7,7.2,7.2,0,0,0-4.1,4.1,4.9,4.9,0,0,0,1.2,5.4,3.5,3.5,0,0,0,1.4.6,3.7,3.7,0,0,0,2-1.1A20.6,20.6,0,0,1,217,242a3.9,3.9,0,0,1,3.6-.3,5,5,0,0,1,1.3,1.2,5.3,5.3,0,0,0,7.5,0,4.5,4.5,0,0,0,1.1-1.7c-.3.7-2.9-.3-3.3-.5a5.9,5.9,0,0,1-2.5-2.7C223.5,235.7,221.2,234.8,218.6,234.6Z"/><path class="a73f7804-c8bd-4f20-9449-a6e08ad98843" d="M218.6,234.2a12.6,12.6,0,0,0-5.8.8,6.8,6.8,0,0,0-4.1,4,4.9,4.9,0,0,0,1.2,5.4,2,2,0,0,0,1.4.6,3.5,3.5,0,0,0,2-1,16.7,16.7,0,0,1,3.7-2.4c1.2-.5,2.6-.9,3.6-.3a4,4,0,0,1,1.3,1.3,5.3,5.3,0,0,0,7.5-.1,3.4,3.4,0,0,0,1.1-1.7c-.3.7-2.9-.2-3.3-.4a6.2,6.2,0,0,1-2.5-2.8C223.5,235.3,221.2,234.4,218.6,234.2Z"/><path class="b88a6480-381c-4d3e-8de2-a9158c60b9bb" d="M214.5,242.3c.1-.6.5-1,.8-.9s.4.6.2,1.2-.5,1-.8.9S214.3,242.9,214.5,242.3Z"/><polygon class="aaa8e931-29f8-4c97-872b-7a7901e8b81f" points="211.6 268.1 211.9 268.4 217.5 265.7 217.2 265.4 211.6 268.1"/><polygon class="aaa8e931-29f8-4c97-872b-7a7901e8b81f" points="223 259.2 222.1 265.3 222.5 265.5 223.2 259.3 223 259.2"/><rect class="e30a8699-9005-43a8-87b7-86a8f8eb98c6" x="189.2" y="243.6" width="4.5" height="30.12"/><rect class="e30a8699-9005-43a8-87b7-86a8f8eb98c6" x="163.3" y="49" width="30.1" height="4.45" transform="translate(73 204) rotate(-71.4)"/><polygon class="e30a8699-9005-43a8-87b7-86a8f8eb98c6" points="192.2 248.4 190.7 248.4 190.7 51.2 192.2 51.4 192.2 248.4"/><path class="b88a6480-381c-4d3e-8de2-a9158c60b9bb" d="M208.9,264.8l13,16,20-8.2s3-1.1,1.5-3.8-4.8.4-4.8.4l-14.9,5.2-9-12.5Z"/><path class="fc27e3ea-c5c2-4db4-a1c9-f6b5db3916f0" d="M203.5,251.6s5.6,17.1,6.3,17.4l8.8-4.2s-2.5-11.6-5.3-13.3S203.9,250.1,203.5,251.6Z"/><path class="aaa8e931-29f8-4c97-872b-7a7901e8b81f" d="M205.1,256.4s-.3,6.5,1.6,7.6"/><g class="a04a5619-33c9-4203-9547-79220faa6856"><polygon class="bf8dfdac-23d5-4ade-bd82-5f8e4c1aa372" points="272.2 242.4 269.5 245 262.6 273.9 262.5 273.8 240.8 273.3 230.7 277.3 230.7 278.7 261.5 278.4 263.6 278.4 265 278.1 273.5 242.8 272.2 242.4"/></g><polygon class="a9c3d175-a331-4a8f-88e8-f088554e1508" points="271.2 243.2 268.7 245.7 270.4 246.4 272.5 243.7 271.2 243.2"/><polygon class="a9c3d175-a331-4a8f-88e8-f088554e1508" points="268.7 245.7 270.4 246.4 263.1 277.5 261.1 277.5 268.7 245.7"/><polygon class="e30a8699-9005-43a8-87b7-86a8f8eb98c6" points="263.1 277.5 264.3 277.3 272.5 243.7 270.4 246.4 263.1 277.5"/><polygon class="e30a8699-9005-43a8-87b7-86a8f8eb98c6" points="231.7 276.5 231.7 277.9 261.1 277.5 261.5 276 231.7 276.5"/><polyline class="a9c3d175-a331-4a8f-88e8-f088554e1508" points="262.2 273.2 262 273.2 241.3 272.7 231.7 276.5 261.5 276.2"/><polygon class="e30a8699-9005-43a8-87b7-86a8f8eb98c6" points="250.1 275.2 250.7 273.5 262 273.5 261.4 275.5 250.1 275.2"/><polygon class="b8f94f79-f667-4542-a204-979e572ef6c7" points="240.5 274.9 244.5 273.5 247.5 273.5 246 274.9 240.5 274.9"/><g class="a04a5619-33c9-4203-9547-79220faa6856"><rect class="b5bb9e69-c63b-4110-8f68-1ca503e80a4f" x="209.3" y="280.8" width="5.2" height="47.73"/></g><g class="a04a5619-33c9-4203-9547-79220faa6856"><rect class="bec75c11-2747-4ee1-81ba-03786da6ce55" x="282.1" y="280.8" width="5.2" height="47.73"/></g><rect class="b8f94f79-f667-4542-a204-979e572ef6c7" x="209.9" y="280.8" width="4.4" height="46.86"/><rect class="b8f94f79-f667-4542-a204-979e572ef6c7" x="282.7" y="280.8" width="4.4" height="46.86"/><polygon class="e30a8699-9005-43a8-87b7-86a8f8eb98c6" points="190.7 51.2 184 41.4 184.7 39.3 192.2 51.2 190.7 51.2"/><rect class="a73f7804-c8bd-4f20-9449-a6e08ad98843" x="222" y="246.2" width="2.9" height="1.16" transform="translate(-105.8 296.3) rotate(-56.4)"/><rect class="a73f7804-c8bd-4f20-9449-a6e08ad98843" x="219.4" y="239.3" width="0.6" height="8.62" transform="translate(-104.9 291.6) rotate(-56.4)"/></svg>